<svg width="24" height="24" viewBox="0 0 24 24" fill="none" xmlns="http://www.w3.org/2000/svg">
<path d="M17.565 18.3729H6.35593C6.2565 18.3729 6.17514 18.4542 6.17514 18.5537V19.8192C6.17514 19.9186 6.2565 20 6.35593 20H17.565C17.6644 20 17.7458 19.9186 17.7458 19.8192V18.5537C17.7458 18.4542 17.6644 18.3729 17.565 18.3729ZM6.35593 8.79096C6.2565 8.79096 6.17514 8.87232 6.17514 8.97175V10.2373C6.17514 10.3367 6.2565 10.4181 6.35593 10.4181H17.565C17.6644 10.4181 17.7458 10.3367 17.7458 10.2373V8.97175C17.7458 8.87232 17.6644 8.79096 17.565 8.79096H6.35593ZM3.10169 5.62712H20.8192C20.9186 5.62712 21 5.54576 21 5.44633V4.18079C21 4.08136 20.9186 4 20.8192 4H3.10169C3.00226 4 2.9209 4.08136 2.9209 4.18079V5.44633C2.9209 5.54576 3.00226 5.62712 3.10169 5.62712ZM3.10169 15.209H20.8192C20.9186 15.209 21 15.1277 21 15.0282V13.7627C21 13.6633 20.9186 13.5819 20.8192 13.5819H3.10169C3.00226 13.5819 2.9209 13.6633 2.9209 13.7627V15.0282C2.9209 15.1277 3.00226 15.209 3.10169 15.209Z" fill="black"/>
</svg>
