<svg width="24" height="24" viewBox="0 0 24 24" fill="none" xmlns="http://www.w3.org/2000/svg">
<path d="M20.8983 20H9.68927C9.58983 20 9.50848 19.9186 9.50848 19.8192V18.5537C9.50848 18.4542 9.58983 18.3729 9.68927 18.3729H20.8983C20.9977 18.3729 21.0791 18.4542 21.0791 18.5537V19.8192C21.0791 19.9186 20.9977 20 20.8983 20ZM20.8983 10.4181H9.68927C9.58983 10.4181 9.50848 10.3367 9.50848 10.2373V8.97175C9.50848 8.87232 9.58983 8.79096 9.68927 8.79096H20.8983C20.9977 8.79096 21.0791 8.87232 21.0791 8.97175V10.2373C21.0791 10.3367 20.9977 10.4181 20.8983 10.4181ZM20.8983 5.62712H3.18079C3.08136 5.62712 3 5.54576 3 5.44633V4.18079C3 4.08136 3.08136 4 3.18079 4H20.8983C20.9977 4 21.0791 4.08136 21.0791 4.18079V5.44633C21.0791 5.54576 20.9977 5.62712 20.8983 5.62712ZM20.8983 15.209H3.18079C3.08136 15.209 3 15.1277 3 15.0282V13.7627C3 13.6633 3.08136 13.5819 3.18079 13.5819H20.8983C20.9977 13.5819 21.0791 13.6633 21.0791 13.7627V15.0282C21.0791 15.1277 20.9977 15.209 20.8983 15.209Z" fill="black"/>
</svg>
