<svg width="18" height="18" viewBox="0 0 18 18" fill="none" xmlns="http://www.w3.org/2000/svg">
<path d="M8.09521 12.7046C8.04881 12.6594 7.85041 12.4887 7.68721 12.3298C6.66081 11.3977 4.98081 8.9661 4.46801 7.69342C4.38561 7.50015 4.21121 7.0115 4.20001 6.75041C4.20001 6.50024 4.25761 6.26176 4.37441 6.03419C4.53761 5.75051 4.79441 5.52294 5.09761 5.39825C5.30801 5.31797 5.93761 5.19328 5.94881 5.19328C6.63761 5.06858 7.75681 5 8.99361 5C10.172 5 11.2456 5.06858 11.9448 5.17068C11.956 5.18237 12.7384 5.30706 13.0064 5.44345C13.496 5.69362 13.8 6.18227 13.8 6.70521V6.75041C13.788 7.09099 13.484 7.80721 13.4728 7.80721C12.9592 9.0113 11.3616 11.3868 10.3 12.3415C10.3 12.3415 10.0272 12.6103 9.85681 12.7272C9.61201 12.9096 9.30881 13 9.00561 13C8.66721 13 8.35201 12.8979 8.09521 12.7046Z" fill="#757575"/>
</svg>
