<svg width="24" height="24" viewBox="0 0 24 24" fill="none" xmlns="http://www.w3.org/2000/svg">
<path d="M3.18079 18.3729H14.3898C14.4893 18.3729 14.5706 18.4542 14.5706 18.5537V19.8192C14.5706 19.9186 14.4893 20 14.3898 20H3.18079C3.08136 20 3 19.9186 3 19.8192V18.5537C3 18.4542 3.08136 18.3729 3.18079 18.3729ZM3.18079 8.79096H14.3898C14.4893 8.79096 14.5706 8.87232 14.5706 8.97175V10.2373C14.5706 10.3367 14.4893 10.4181 14.3898 10.4181H3.18079C3.08136 10.4181 3 10.3367 3 10.2373V8.97175C3 8.87232 3.08136 8.79096 3.18079 8.79096ZM20.8983 5.62712H3.18079C3.08136 5.62712 3 5.54576 3 5.44633V4.18079C3 4.08136 3.08136 4 3.18079 4H20.8983C20.9977 4 21.0791 4.08136 21.0791 4.18079V5.44633C21.0791 5.54576 20.9977 5.62712 20.8983 5.62712ZM20.8983 15.209H3.18079C3.08136 15.209 3 15.1277 3 15.0282V13.7627C3 13.6633 3.08136 13.5819 3.18079 13.5819H20.8983C20.9977 13.5819 21.0791 13.6633 21.0791 13.7627V15.0282C21.0791 15.1277 20.9977 15.209 20.8983 15.209Z" fill="black"/>
</svg>
