<svg width="41" height="40" viewBox="0 0 41 40" fill="none" xmlns="http://www.w3.org/2000/svg">
<path d="M31.7258 9.75H9.36022C8.88441 9.75 8.5 10.1344 8.5 10.6102V23.9435C8.5 24.4194 8.88441 24.8038 9.36022 24.8038H19.5753V27.8145H14.9516C14.7151 27.8145 14.5215 28.0081 14.5215 28.2446V29.5349C14.5215 29.6532 14.6183 29.75 14.7366 29.75H26.3495C26.4677 29.75 26.5645 29.6532 26.5645 29.5349V28.2446C26.5645 28.0081 26.371 27.8145 26.1344 27.8145H21.5108V24.8038H31.7258C32.2016 24.8038 32.586 24.4194 32.586 23.9435V10.6102C32.586 10.1344 32.2016 9.75 31.7258 9.75ZM30.6505 22.8683H10.4355V11.6855H30.6505V22.8683Z" fill="black" stroke="black" stroke-width="0.5"/>
</svg>
