<svg width="90" height="26" viewBox="0 0 90 26" fill="none" xmlns="http://www.w3.org/2000/svg">
<path d="M17.4935 11.5455L15.6494 13.961C14.0649 13 13.0519 11.4935 12.4545 9.72727C11.8831 11.5714 10.8961 13.1818 9.25974 14.2468C7.62338 13.1818 6.63636 11.5195 6.06494 9.67532C5.46753 11.4416 4.45455 12.974 2.87013 13.961L1 11.5455C3.77922 9.77922 4.45455 6.61039 4.45455 3.7013V2.35065H7.67532V3.7013C7.67532 5.80519 7.96104 8.22078 9.25974 10.1169C10.5584 8.22078 10.8442 5.85714 10.8442 3.7013V2.35065H14.039V3.7013C14.039 6.71428 14.7143 9.83117 17.4935 11.5455ZM8.66234 18.4286V21.9351H18.5584V18.4286H8.66234ZM5.28571 24.6364V15.7273H21.9351V24.6364H5.28571ZM18.5065 1.05195H21.9351V14.6623H18.5065V8.45455H15.8052V5.72727H18.5065V1.05195Z" fill="#36DBD1"/>
<path d="M28.3486 3.31169V16.2987C30.5045 16.2468 32.5045 16.0909 34.7123 15.6753L35.1278 18.5325C32.2707 19.1299 29.6733 19.2338 26.6603 19.2338H24.998V3.31169H28.3486ZM36.3226 8.55844V1.41558H39.5175V23.8831H36.3226V11.3377H31.6213V8.55844H36.3226ZM41.3876 1H44.6343V24.9221H41.3876V1Z" fill="#36DBD1"/>
<path d="M66.5284 1.02597V13H63.0739V1.02597H66.5284ZM50.3206 7.18182C50.3206 8.8961 51.6453 9.88312 53.4115 9.88312C55.1778 9.88312 56.4505 8.8961 56.4505 7.18182C56.4505 5.49351 55.1778 4.48052 53.4115 4.48052C51.6453 4.48052 50.3206 5.49351 50.3206 7.18182ZM59.7752 7.18182C59.7752 10.3766 57.0479 12.6623 53.4115 12.6623C49.7492 12.6623 46.9959 10.3766 46.9959 7.18182C46.9959 4.01299 49.7492 1.72727 53.4115 1.72727C57.0479 1.72727 59.7752 4.01299 59.7752 7.18182ZM54.0089 22.013H67.1258V24.6623H50.6063V18.0649H63.1258V16.6104H50.5804V13.987H66.5284V20.5065H54.0089V22.013Z" fill="#36DBD1"/>
<path d="M73.4614 12.013V16.6623C76.7082 16.6364 79.4355 16.4805 82.4485 15.987L82.7601 18.7662C79.2017 19.3377 76.0329 19.4675 72.0589 19.4675H70.0848V9.33766H77.4095V5.77922H70.0329V3.05195H80.8121V12.013H73.4614ZM85.8251 1H89.2796V25H85.8251V12.4026H82.0848V9.62338H85.8251V1Z" fill="#36DBD1"/>
<path d="M17.4935 11.5455L15.6494 13.961C14.0649 13 13.0519 11.4935 12.4545 9.72727C11.8831 11.5714 10.8961 13.1818 9.25974 14.2468C7.62338 13.1818 6.63636 11.5195 6.06494 9.67532C5.46753 11.4416 4.45455 12.974 2.87013 13.961L1 11.5455C3.77922 9.77922 4.45455 6.61039 4.45455 3.7013V2.35065H7.67532V3.7013C7.67532 5.80519 7.96104 8.22078 9.25974 10.1169C10.5584 8.22078 10.8442 5.85714 10.8442 3.7013V2.35065H14.039V3.7013C14.039 6.71428 14.7143 9.83117 17.4935 11.5455ZM8.66234 18.4286V21.9351H18.5584V18.4286H8.66234ZM5.28571 24.6364V15.7273H21.9351V24.6364H5.28571ZM18.5065 1.05195H21.9351V14.6623H18.5065V8.45455H15.8052V5.72727H18.5065V1.05195Z" stroke="#36DBD1" stroke-width="0.25"/>
<path d="M28.3486 3.31169V16.2987C30.5045 16.2468 32.5045 16.0909 34.7123 15.6753L35.1278 18.5325C32.2707 19.1299 29.6733 19.2338 26.6603 19.2338H24.998V3.31169H28.3486ZM36.3226 8.55844V1.41558H39.5175V23.8831H36.3226V11.3377H31.6213V8.55844H36.3226ZM41.3876 1H44.6343V24.9221H41.3876V1Z" stroke="#36DBD1" stroke-width="0.25"/>
<path d="M66.5284 1.02597V13H63.0739V1.02597H66.5284ZM50.3206 7.18182C50.3206 8.8961 51.6453 9.88312 53.4115 9.88312C55.1778 9.88312 56.4505 8.8961 56.4505 7.18182C56.4505 5.49351 55.1778 4.48052 53.4115 4.48052C51.6453 4.48052 50.3206 5.49351 50.3206 7.18182ZM59.7752 7.18182C59.7752 10.3766 57.0479 12.6623 53.4115 12.6623C49.7492 12.6623 46.9959 10.3766 46.9959 7.18182C46.9959 4.01299 49.7492 1.72727 53.4115 1.72727C57.0479 1.72727 59.7752 4.01299 59.7752 7.18182ZM54.0089 22.013H67.1258V24.6623H50.6063V18.0649H63.1258V16.6104H50.5804V13.987H66.5284V20.5065H54.0089V22.013Z" stroke="#36DBD1" stroke-width="0.25"/>
<path d="M73.4614 12.013V16.6623C76.7082 16.6364 79.4355 16.4805 82.4485 15.987L82.7601 18.7662C79.2017 19.3377 76.0329 19.4675 72.0589 19.4675H70.0848V9.33766H77.4095V5.77922H70.0329V3.05195H80.8121V12.013H73.4614ZM85.8251 1H89.2796V25H85.8251V12.4026H82.0848V9.62338H85.8251V1Z" stroke="#36DBD1" stroke-width="0.25"/>
</svg>
