<svg width="41" height="40" viewBox="0 0 41 40" fill="none" xmlns="http://www.w3.org/2000/svg">
<path d="M26.6429 7.75H14.2143C13.2688 7.75 12.5 8.51875 12.5 9.46429V30.0357C12.5 30.9813 13.2688 31.75 14.2143 31.75H26.6429C27.5884 31.75 28.3571 30.9813 28.3571 30.0357V9.46429C28.3571 8.51875 27.5884 7.75 26.6429 7.75ZM26.4286 29.8214H14.4286V9.67857H26.4286V29.8214ZM19.3571 27.0893C19.3571 27.3734 19.47 27.646 19.671 27.8469C19.8719 28.0478 20.1444 28.1607 20.4286 28.1607C20.7127 28.1607 20.9853 28.0478 21.1862 27.8469C21.3871 27.646 21.5 27.3734 21.5 27.0893C21.5 26.8051 21.3871 26.5326 21.1862 26.3317C20.9853 26.1307 20.7127 26.0179 20.4286 26.0179C20.1444 26.0179 19.8719 26.1307 19.671 26.3317C19.47 26.5326 19.3571 26.8051 19.3571 27.0893Z" fill="#757575" stroke="#757575" stroke-width="0.5"/>
</svg>
