<svg width="20" height="20" viewBox="0 0 20 20" fill="none" xmlns="http://www.w3.org/2000/svg">
<path d="M4.26671 9.37C4.28337 8.64167 4.43337 7.935 4.71504 7.27C5.00337 6.58667 5.41671 5.975 5.94337 5.44667C6.47004 4.91833 7.08337 4.505 7.76671 4.21667C8.47337 3.91833 9.22337 3.76667 9.99837 3.76667C10.7734 3.76667 11.5234 3.91833 12.2284 4.21667C12.9097 4.50441 13.5285 4.9222 14.05 5.44667C14.215 5.61167 14.37 5.78667 14.5134 5.97L13.51 6.75333C13.4902 6.76869 13.4751 6.78934 13.4664 6.8129C13.4578 6.83647 13.456 6.86199 13.4612 6.88654C13.4664 6.91109 13.4785 6.93367 13.496 6.95167C13.5134 6.96968 13.5357 6.98239 13.56 6.98833L16.4884 7.705C16.5717 7.725 16.6534 7.66167 16.6534 7.57667L16.6667 4.56167C16.6667 4.45 16.5384 4.38667 16.4517 4.45667L15.5117 5.19167C14.23 3.55167 12.2367 2.5 9.99671 2.5C6.17837 2.5 3.07171 5.56 3.00004 9.36333C2.9996 9.38112 3.00272 9.39882 3.00922 9.41538C3.01572 9.43195 3.02547 9.44704 3.0379 9.45978C3.05032 9.47251 3.06517 9.48263 3.08157 9.48954C3.09797 9.49645 3.11558 9.50001 3.13338 9.5H4.13337C4.20671 9.5 4.26504 9.44167 4.26671 9.37ZM16.8667 9.5H15.8667C15.7934 9.5 15.735 9.55833 15.7334 9.63C15.7167 10.3583 15.5667 11.065 15.285 11.73C14.9967 12.4133 14.5834 13.0267 14.0567 13.5533C13.5251 14.0871 12.8931 14.5104 12.1972 14.7987C11.5012 15.0871 10.755 15.2348 10.0017 15.2333C9.24863 15.2347 8.50273 15.087 7.80704 14.7987C7.11135 14.5103 6.47965 14.0871 5.94837 13.5533C5.78337 13.3883 5.62837 13.2133 5.48504 13.03L6.48837 12.2467C6.50823 12.2313 6.52334 12.2107 6.53198 12.1871C6.54062 12.1635 6.54243 12.138 6.53721 12.1135C6.53198 12.0889 6.51994 12.0663 6.50245 12.0483C6.48497 12.0303 6.46276 12.0176 6.43837 12.0117L3.51004 11.295C3.42671 11.275 3.34504 11.3383 3.34504 11.4233L3.33337 14.44C3.33337 14.5517 3.46171 14.615 3.54838 14.545L4.48838 13.81C5.77004 15.4483 7.76338 16.5 10.0034 16.5C13.8234 16.5 16.9284 13.4383 17 9.63667C17.0005 9.61888 16.9974 9.60118 16.9909 9.58462C16.9844 9.56806 16.9746 9.55296 16.9622 9.54022C16.9498 9.52749 16.9349 9.51737 16.9185 9.51046C16.9021 9.50355 16.8845 9.49999 16.8667 9.5Z" fill="#757575" stroke="#757575" stroke-width="0.25"/>
</svg>
