<svg width="41" height="40" viewBox="0 0 41 40" fill="none" xmlns="http://www.w3.org/2000/svg">
<path d="M28.6429 7.75H13.2143C12.2688 7.75 11.5 8.51875 11.5 9.46429V30.0357C11.5 30.9813 12.2688 31.75 13.2143 31.75H28.6429C29.5884 31.75 30.3572 30.9813 30.3572 30.0357V9.46429C30.3572 8.51875 29.5884 7.75 28.6429 7.75ZM28.4286 29.8214H13.4286V9.67857H28.4286V29.8214ZM19.8572 27.0357C19.8572 27.3199 19.97 27.5924 20.171 27.7933C20.3719 27.9943 20.6444 28.1071 20.9286 28.1071C21.2127 28.1071 21.4853 27.9943 21.6862 27.7933C21.8871 27.5924 22 27.3199 22 27.0357C22 26.7516 21.8871 26.479 21.6862 26.2781C21.4853 26.0772 21.2127 25.9643 20.9286 25.9643C20.6444 25.9643 20.3719 26.0772 20.171 26.2781C19.97 26.479 19.8572 26.7516 19.8572 27.0357Z" fill="#757575" stroke="#757575" stroke-width="0.5"/>
</svg>
