<svg width="41" height="40" viewBox="0 0 41 40" fill="none" xmlns="http://www.w3.org/2000/svg">
<rect x="1" y="0.5" width="39" height="39" rx="19.5" fill="white" stroke="#D5D5D5"/>
<path d="M19.1753 27C19.0355 27 18.8957 26.8608 18.8957 26.6938V21.5717H13.7796C13.6398 21.5717 13.5 21.4325 13.5 21.2655V19.7345C13.5 19.5675 13.6398 19.4283 13.7796 19.4283H18.8957V14.3062C18.8957 14.1392 19.0355 14 19.1753 14H20.7968C20.9645 14 21.1043 14.1392 21.1043 14.3062V19.4283H26.1925C26.3602 19.4283 26.5 19.5675 26.5 19.7345V21.2655C26.5 21.4325 26.3602 21.5717 26.1925 21.5717H21.1043V26.6938C21.1043 26.8608 20.9645 27 20.7968 27H19.1753Z" fill="#757575"/>
</svg>
